<svg width="50" height="50" viewBox="0 0 50 50" fill="none" xmlns="http://www.w3.org/2000/svg">
<rect y="17" width="50" height="33" fill="#F2F2F2"/>
<rect width="50" height="17" fill="#00366B"/>
<path d="M19.9883 41H17.1523V27.3008L12.9688 28.7305V26.3281L19.625 23.8789H19.9883V41ZM37.0391 33.8164C37.0391 36.2695 36.5781 38.1211 35.6562 39.3711C34.7422 40.6133 33.3477 41.2344 31.4727 41.2344C29.6289 41.2344 28.2383 40.6289 27.3008 39.418C26.3711 38.1992 25.8945 36.3984 25.8711 34.0156V31.0625C25.8711 28.6094 26.3281 26.7695 27.2422 25.543C28.1641 24.3164 29.5664 23.7031 31.4492 23.7031C33.3164 23.7031 34.707 24.3008 35.6211 25.4961C36.543 26.6914 37.0156 28.4805 37.0391 30.8633V33.8164ZM34.1914 30.6289C34.1914 29.0273 33.9727 27.8555 33.5352 27.1133C33.0977 26.3633 32.4023 25.9883 31.4492 25.9883C30.5195 25.9883 29.8359 26.3438 29.3984 27.0547C28.9609 27.7578 28.7305 28.8594 28.707 30.3594V34.2266C28.707 35.8203 28.9297 37.0078 29.375 37.7891C29.8203 38.5703 30.5195 38.9609 31.4727 38.9609C32.3867 38.9609 33.0625 38.6016 33.5 37.8828C33.9375 37.1562 34.168 36.0234 34.1914 34.4844V30.6289Z" fill="black"/>
<path d="M18.0859 3.04688H19.8086V10.0264C19.8086 10.9788 19.5101 11.7354 18.9131 12.2959C18.3206 12.8564 17.5368 13.1367 16.5615 13.1367C15.5225 13.1367 14.7204 12.8747 14.1553 12.3506C13.5902 11.8265 13.3076 11.0973 13.3076 10.1631H15.0303C15.0303 10.6917 15.1602 11.0905 15.4199 11.3594C15.6842 11.6237 16.0648 11.7559 16.5615 11.7559C17.0264 11.7559 17.3955 11.6032 17.6689 11.2979C17.9469 10.988 18.0859 10.5618 18.0859 10.0195V3.04688ZM29.0713 3.04688V9.69824C29.0713 10.7555 28.7318 11.5941 28.0527 12.2139C27.3783 12.8291 26.4782 13.1367 25.3525 13.1367C24.2132 13.1367 23.3086 12.8337 22.6387 12.2275C21.9688 11.6169 21.6338 10.7715 21.6338 9.69141V3.04688H23.3564V9.70508C23.3564 10.3704 23.5251 10.8786 23.8623 11.2295C24.1995 11.5804 24.6963 11.7559 25.3525 11.7559C26.6833 11.7559 27.3486 11.054 27.3486 9.65039V3.04688H29.0713ZM32.6533 11.6191H37.1719V13H30.9238V3.04688H32.6533V11.6191Z" fill="#F2F2F2"/>
</svg>
