<svg width="42" height="42" viewBox="0 0 42 42" fill="none" xmlns="http://www.w3.org/2000/svg">
<path d="M21 0.6875C9.7998 0.6875 0.6875 9.7998 0.6875 21C0.6875 32.2002 9.7998 41.3125 21 41.3125C32.2002 41.3125 41.3125 32.2002 41.3125 21C41.3125 9.7998 32.2002 0.6875 21 0.6875ZM16.0957 12.0957C17.333 10.7842 19.0742 10.0625 21 10.0625C22.9258 10.0625 24.6514 10.7891 25.8936 12.1074C27.1523 13.4434 27.7646 15.2383 27.6201 17.168C27.3311 21 24.3623 24.125 21 24.125C17.6377 24.125 14.6631 21 14.3799 17.167C14.2363 15.2217 14.8477 13.4209 16.0957 12.0957ZM21 38.1875C18.7055 38.189 16.4341 37.7298 14.3205 36.837C12.2068 35.9442 10.2939 34.6361 8.69531 32.9902C9.6109 31.6845 10.7775 30.5744 12.127 29.7246C14.6162 28.1289 17.7666 27.25 21 27.25C24.2334 27.25 27.3838 28.1289 29.8701 29.7246C31.2207 30.574 32.3883 31.6842 33.3047 32.9902C31.7062 34.6363 29.7934 35.9445 27.6797 36.8373C25.566 37.7301 23.2945 38.1892 21 38.1875Z" fill="black"/>
</svg>
