<svg width="50" height="50" viewBox="0 0 50 50" fill="none" xmlns="http://www.w3.org/2000/svg">
<circle cx="25" cy="25" r="25" fill="#00366B"/>
<path d="M15.752 18C12.116 19.512 11 22.716 11 24.912C11 26.928 11.972 28.116 13.556 28.116C14.924 28.116 15.824 27.216 15.824 26.028C15.824 24.408 14.6 23.688 12.764 23.184C12.944 21.924 13.88 20.088 16.328 18.9L15.752 18ZM23.132 18C19.532 19.512 18.416 22.716 18.416 24.912C18.416 26.928 19.352 28.116 20.936 28.116C22.34 28.116 23.24 27.216 23.24 26.028C23.24 24.408 21.98 23.688 20.18 23.184C20.36 21.924 21.296 20.088 23.708 18.9L23.132 18Z" fill="#F2F2F2"/>
<path d="M34.496 31.116C38.132 29.604 39.248 26.4 39.248 24.24C39.248 22.188 38.276 21 36.692 21C35.324 21 34.424 21.9 34.424 23.088C34.424 24.744 35.648 25.464 37.484 25.932C37.304 27.228 36.368 29.028 33.92 30.216L34.496 31.116ZM27.116 31.116C30.716 29.604 31.832 26.4 31.832 24.24C31.832 22.188 30.896 21 29.312 21C27.908 21 27.008 21.9 27.008 23.088C27.008 24.744 28.268 25.464 30.068 25.932C29.888 27.228 28.952 29.028 26.54 30.216L27.116 31.116Z" fill="#F2F2F2"/>
</svg>
